<svg width="25" height="25" viewBox="0 0 25 25" fill="none" xmlns="http://www.w3.org/2000/svg">
<path d="M25 0H0V25H25V0Z" fill="#F7DF1E"/>
<path d="M16.7931 19.5312C17.2967 20.3535 17.9519 20.9578 19.1106 20.9578C20.084 20.9578 20.7058 20.4713 20.7058 19.7991C20.7058 18.9935 20.067 18.7082 18.9955 18.2396L18.4082 17.9876C16.713 17.2654 15.5868 16.3606 15.5868 14.4479C15.5868 12.686 16.9293 11.3447 19.0273 11.3447C20.5209 11.3447 21.5947 11.8646 22.3685 13.2257L20.5392 14.4003C20.1364 13.6781 19.7019 13.3935 19.0273 13.3935C18.3392 13.3935 17.9031 13.83 17.9031 14.4003C17.9031 15.105 18.3396 15.3904 19.3475 15.8269L19.9348 16.0785C21.9308 16.9344 23.0578 17.807 23.0578 19.7689C23.0578 21.884 21.3963 23.0427 19.165 23.0427C16.9832 23.0427 15.5737 22.0031 14.884 20.6404L16.7931 19.5312ZM8.49433 19.7348C8.86338 20.3896 9.19909 20.9431 10.0062 20.9431C10.7781 20.9431 11.265 20.6412 11.265 19.4669V11.4789H13.6142V19.4987C13.6142 21.9312 12.188 23.0384 10.1062 23.0384C8.22529 23.0384 7.136 22.065 6.58203 20.8925L8.49433 19.7348Z" fill="#222222"/>
</svg>
