<svg width="25" height="25" viewBox="0 0 25 25" fill="none" xmlns="http://www.w3.org/2000/svg">
<path d="M11.5696 0.266715C12.1895 -0.0881031 12.9969 -0.0897058 13.6163 0.266715C16.7322 2.02736 19.849 3.78524 22.9644 5.54696C23.5504 5.87702 23.9423 6.52914 23.9363 7.20432V17.797C23.9407 18.5002 23.51 19.1679 22.8918 19.4905C19.7862 21.2414 16.6821 22.9945 13.577 24.7454C12.9443 25.1072 12.1207 25.0793 11.5077 24.6879C10.5767 24.1481 9.64399 23.6111 8.71283 23.0718C8.52255 22.9584 8.30806 22.8681 8.1737 22.6836C8.29248 22.5235 8.50483 22.5036 8.67739 22.4337C9.06604 22.3101 9.423 22.1117 9.78004 21.9192C9.87033 21.8575 9.98056 21.8811 10.0671 21.9364C10.8633 22.3929 11.6524 22.8627 12.4513 23.3148C12.6217 23.4132 12.7943 23.2826 12.9399 23.2014C15.9875 21.4789 19.0389 19.763 22.0859 18.04C22.1988 17.9857 22.2613 17.8659 22.2521 17.7422C22.2542 14.2479 22.2526 10.7529 22.2532 7.25863C22.2661 7.11831 22.1849 6.98929 22.058 6.93186C18.9631 5.18893 15.8698 3.44334 12.7755 1.69997C12.7219 1.66311 12.6584 1.64333 12.5933 1.64324C12.5282 1.64314 12.4647 1.66273 12.4109 1.69943C9.3166 3.44334 6.22385 5.19054 3.1295 6.93337C3.00306 6.99089 2.91821 7.11777 2.93326 7.25863C2.93379 10.7529 2.93326 14.2479 2.93326 17.7427C2.92789 17.8031 2.94115 17.8636 2.97123 17.9162C3.00132 17.9688 3.0468 18.0109 3.10154 18.0368C3.92728 18.5051 4.75409 18.97 5.58037 19.4367C6.04586 19.6872 6.6174 19.8361 7.13026 19.6441C7.58284 19.4818 7.90009 19.02 7.89145 18.5394C7.89572 15.0655 7.88931 11.5911 7.89465 8.11767C7.88335 7.96346 8.02964 7.83605 8.17958 7.85056C8.57633 7.84789 8.97362 7.84522 9.37038 7.85163C9.53599 7.84789 9.64996 8.01394 9.62948 8.16932C9.62788 11.6652 9.63375 15.1612 9.62681 18.6571C9.62788 19.5888 9.2451 20.6026 8.3833 21.0585C7.3216 21.6085 6.00936 21.4919 4.96048 20.9645C4.05247 20.5113 3.18595 19.9764 2.29405 19.4909C1.67426 19.1701 1.24571 18.4997 1.25008 17.7971V7.20432C1.24358 6.51516 1.65111 5.8512 2.25532 5.52594C5.36044 3.77358 8.46503 2.01988 11.5696 0.266715Z" fill="#8CC84B"/>
<path d="M14.2783 7.60386C15.6326 7.51669 17.0824 7.55222 18.301 8.21939C19.2446 8.73064 19.7677 9.80365 19.7843 10.8519C19.758 10.9933 19.6102 11.0713 19.4752 11.0616C19.0823 11.061 18.6892 11.0669 18.2963 11.0589C18.1296 11.0653 18.0328 10.9116 18.0118 10.7643C17.8989 10.2627 17.6254 9.76598 17.1533 9.52407C16.4286 9.16123 15.5884 9.17949 14.7982 9.18706C14.2213 9.21768 13.601 9.26763 13.1122 9.60687C12.737 9.86384 12.6231 10.3826 12.757 10.8003C12.8832 11.1003 13.2295 11.1971 13.5128 11.2863C15.1449 11.7132 16.8744 11.6707 18.4753 12.2324C19.1381 12.4614 19.7865 12.9066 20.0133 13.6006C20.3101 14.5307 20.18 15.6424 19.5183 16.3891C18.9816 17.0036 18.2001 17.338 17.4205 17.5196C16.3835 17.7509 15.3073 17.7567 14.2542 17.6541C13.2639 17.5412 12.2333 17.281 11.4689 16.6063C10.8151 16.0386 10.4958 15.1542 10.5275 14.3006C10.5351 14.1565 10.6786 14.0559 10.8167 14.0678C11.2124 14.0646 11.6081 14.0635 12.0038 14.0683C12.1618 14.057 12.279 14.1936 12.2871 14.3426C12.3601 14.8204 12.5397 15.322 12.9564 15.6053C13.7606 16.1241 14.7697 16.0886 15.6905 16.1031C16.4534 16.0693 17.3098 16.059 17.9323 15.5548C18.2608 15.2672 18.3581 14.7861 18.2693 14.3721C18.1732 14.0226 17.8076 13.8598 17.4936 13.7533C15.8825 13.2436 14.1337 13.4286 12.5381 12.8522C11.8904 12.6233 11.264 12.1905 11.0151 11.525C10.6679 10.5832 10.827 9.4182 11.5581 8.69672C12.2709 7.97907 13.2999 7.7027 14.2783 7.60377V7.60386Z" fill="#8CC84B"/>
</svg>
