<svg width="25" height="25" viewBox="0 0 25 25" fill="none" xmlns="http://www.w3.org/2000/svg">
<path fill-rule="evenodd" clip-rule="evenodd" d="M2.44347 17.1599C2.18913 16.7587 2.18529 16.2477 2.43356 15.8427L11.7815 0.594306C12.3014 -0.253801 13.5569 -0.179645 13.9734 0.723765L22.5131 19.2486C22.83 19.9359 22.4652 20.7446 21.7402 20.9621L8.45599 24.9474C7.92151 25.1077 7.34562 24.8929 7.04685 24.4216L2.44347 17.1599ZM12.86 5.0528C12.9501 4.60422 13.5647 4.53954 13.7463 4.95953L19.6369 18.5901C19.7477 18.8468 19.6097 19.1427 19.3418 19.2226L10.1634 21.9625C9.82608 22.0632 9.5029 21.7684 9.57223 21.4232L12.86 5.0528Z" fill="#2D3748"/>
</svg>
