<svg width="25" height="25" viewBox="0 0 25 25" fill="none" xmlns="http://www.w3.org/2000/svg">
<path d="M12.5 5C9.16656 5 7.08328 6.66625 6.24984 9.99843C7.5 8.33218 8.95836 7.70757 10.6249 8.12398C11.5759 8.36157 12.2555 9.05151 13.008 9.81492C14.2335 11.0585 15.6518 12.4978 18.7502 12.4978C22.0833 12.4978 24.1669 10.8316 25 7.49906C23.7502 9.16531 22.2918 9.79023 20.6249 9.37382C19.6743 9.13623 18.9946 8.44629 18.2422 7.68288C17.0167 6.43929 15.598 5 12.5 5ZM6.24984 12.4978C2.91672 12.4978 0.833125 14.164 0 17.4965C1.24984 15.8303 2.7082 15.2054 4.37508 15.6221C5.32575 15.86 6.00538 16.5496 6.75785 17.3127C7.98331 18.5563 9.40196 19.9959 12.5 19.9959C15.8334 19.9959 17.9167 18.3297 18.7502 14.9972C17.5 16.6634 16.0416 17.2883 14.3751 16.8716C13.4241 16.6343 12.7445 15.9441 11.992 15.181C10.7665 13.9374 9.34819 12.4978 6.24984 12.4978Z" fill="#06B6D4"/>
</svg>
