<svg width="25" height="25" viewBox="0 0 25 25" fill="none" xmlns="http://www.w3.org/2000/svg">
<path d="M0 0H25V25H0V0Z" fill="#017ACB"/>
<path d="M12.0039 9.25781H13.2031V11.3281H9.96095V20.5391L9.87501 20.5625C9.75782 20.5938 8.21485 20.5937 7.88282 20.5586L7.61719 20.5352V11.3281H4.375V9.25781L5.40235 9.24609C5.96485 9.23828 7.41016 9.23828 8.61329 9.24609C9.81642 9.25391 11.3399 9.25781 12.0039 9.25781ZM21.1563 19.5625C20.6797 20.0664 20.168 20.3477 19.3164 20.5781C18.9453 20.6797 18.8828 20.6836 18.0469 20.6797C17.211 20.6758 17.1446 20.6758 16.7383 20.5703C15.6875 20.3008 14.8399 19.7734 14.2617 19.0273C14.0977 18.8164 13.8281 18.3789 13.8281 18.3242C13.8281 18.3086 13.8672 18.2734 13.918 18.25C13.9688 18.2266 14.0742 18.1602 14.1602 18.1094C14.2461 18.0586 14.4024 17.9648 14.5078 17.9102C14.6133 17.8555 14.918 17.6758 15.1836 17.5156C15.4492 17.3555 15.6914 17.2266 15.7188 17.2266C15.7461 17.2266 15.7969 17.2812 15.836 17.3477C16.0703 17.7422 16.6172 18.2461 17.0039 18.418C17.2422 18.5195 17.7696 18.6328 18.0235 18.6328C18.2578 18.6328 18.6875 18.5312 18.918 18.4258C19.1641 18.3125 19.2891 18.1992 19.4375 17.9727C19.5391 17.8125 19.5508 17.7695 19.5469 17.4648C19.5469 17.1836 19.5313 17.1055 19.4532 16.9766C19.2344 16.6172 18.9375 16.4297 17.7344 15.8984C16.4922 15.3477 15.9336 15.0195 15.4805 14.5781C15.1445 14.25 15.0781 14.1602 14.8672 13.75C14.5938 13.2227 14.5586 13.0508 14.5547 12.2656C14.5508 11.7148 14.5625 11.5352 14.6211 11.3477C14.7031 11.0664 14.9688 10.5234 15.0899 10.3867C15.3399 10.0937 15.4297 10.0039 15.6055 9.85937C16.1367 9.42187 16.9649 9.13281 17.7578 9.10547C17.8477 9.10547 18.1446 9.12109 18.4219 9.14062C19.2188 9.20703 19.7617 9.40234 20.2852 9.82031C20.6797 10.1328 21.2774 10.8672 21.2188 10.9648C21.1797 11.0234 19.6211 12.0625 19.5196 12.0937C19.4571 12.1133 19.4141 12.0898 19.3281 11.9883C18.7969 11.3516 18.5821 11.2148 18.0664 11.1836C17.6992 11.1602 17.5039 11.2031 17.2578 11.3672C17 11.5391 16.875 11.8008 16.875 12.1641C16.8789 12.6953 17.0821 12.9453 17.8321 13.3164C18.3164 13.5547 18.7305 13.75 18.7617 13.75C18.8086 13.75 19.8125 14.25 20.0742 14.4062C21.293 15.1211 21.7891 15.8555 21.918 17.1211C22.0117 18.0742 21.7422 18.9453 21.1563 19.5625Z" fill="white"/>
</svg>
