<svg width="25" height="25" viewBox="0 0 25 25" fill="none" xmlns="http://www.w3.org/2000/svg">
<path d="M23.5437 0L21.5355 22.4974L12.5084 25L3.50611 22.5009L1.5 0H23.5437Z" fill="#264DE4"/>
<path d="M19.8158 21.0649L21.532 1.83984H12.5215V23.0872L19.8158 21.0649Z" fill="#2965F1"/>
<path d="M6.09961 10.1846L6.34695 12.9442H12.5225V10.1846H6.09961Z" fill="#EBEBEB"/>
<path d="M12.5214 4.59961H12.5119H5.60156L5.85242 7.35928H12.5214V4.59961Z" fill="#EBEBEB"/>
<path d="M12.521 20.223V17.3518L12.5089 17.3551L9.43547 16.5252L9.239 14.3242H7.74555H6.46875L6.85538 18.6573L12.5083 20.2265L12.521 20.223Z" fill="#EBEBEB"/>
<path d="M15.9099 12.9448L15.5896 16.5239L12.5117 17.3546V20.2257L18.1691 18.6577L18.2106 18.1915L18.8591 10.9262L18.9265 10.1852L19.4247 4.59961H12.5117V7.35928H16.4003L16.1492 10.1852H12.5117V12.9448H15.9099Z" fill="white"/>
</svg>
