<svg width="25" height="25" viewBox="0 0 25 25" fill="none" xmlns="http://www.w3.org/2000/svg">
<path d="M24.7534 10.2721C24.6856 10.2183 24.0527 9.74034 22.7178 9.74034C22.3654 9.74188 22.0136 9.77211 21.6661 9.83075C21.4077 8.05996 19.9437 7.19661 19.8781 7.15788L19.5196 6.95117L19.2839 7.29136C18.9887 7.74833 18.7731 8.25208 18.6466 8.78119C18.4076 9.79202 18.553 10.7414 19.0664 11.5531C18.4464 11.8986 17.4517 11.9837 17.2504 11.9912H0.782566C0.35243 11.9918 0.00339437 12.3394 0.00105021 12.7695C-0.0181579 14.2122 0.226265 15.6463 0.722282 17.0011C1.28957 18.4888 2.13354 19.5847 3.23155 20.2553C4.46196 21.0088 6.46097 21.4394 8.72693 21.4394C9.7506 21.4426 10.7723 21.35 11.7788 21.1628C13.1778 20.9059 14.524 20.4169 15.7617 19.716C16.7815 19.1254 17.6994 18.3741 18.4798 17.4909C19.7845 16.014 20.5617 14.3691 21.1398 12.9073H21.3701C22.7986 12.9073 23.677 12.3357 24.1614 11.8567C24.4833 11.5512 24.7347 11.179 24.8977 10.7662L25 10.467L24.7534 10.2721Z" fill="#2496ED"/>
<path d="M2.30889 11.5084H4.51565C4.62209 11.5084 4.70833 11.4221 4.70833 11.3157V9.35001C4.70892 9.24358 4.62313 9.15684 4.51674 9.15625C4.51639 9.15625 4.516 9.15625 4.51565 9.15625H2.30889C2.20246 9.15625 2.11621 9.24253 2.11621 9.34893V9.35001V11.3156C2.11621 11.4221 2.20246 11.5084 2.30889 11.5084Z" fill="#2496ED"/>
<path d="M5.35005 11.5084H7.55681C7.66324 11.5084 7.74949 11.4221 7.74949 11.3157V9.35001C7.75008 9.24358 7.66429 9.15684 7.55786 9.15625C7.55751 9.15625 7.55713 9.15625 7.55678 9.15625H5.35001C5.24298 9.15625 5.15625 9.24298 5.15625 9.35001V11.3156C5.15688 11.4222 5.24344 11.5084 5.35005 11.5084Z" fill="#2496ED"/>
<path d="M8.43685 11.5084H10.6436C10.7501 11.5084 10.8363 11.4221 10.8363 11.3157V9.35001C10.8369 9.24358 10.7511 9.15684 10.6447 9.15625C10.6443 9.15625 10.6439 9.15625 10.6436 9.15625H8.43682C8.33038 9.15625 8.24414 9.24253 8.24414 9.34893V9.35001V11.3156C8.24418 11.4221 8.33045 11.5084 8.43685 11.5084Z" fill="#2496ED"/>
<path d="M11.4876 11.5084H13.6944C13.801 11.5084 13.8875 11.4223 13.8881 11.3157V9.35001C13.8881 9.24298 13.8014 9.15625 13.6944 9.15625H11.4876C11.3812 9.15625 11.2949 9.24253 11.2949 9.34893V9.35001V11.3156C11.2949 11.4221 11.3812 11.5084 11.4876 11.5084Z" fill="#2496ED"/>
<path d="M5.35001 8.68117H7.55678C7.66335 8.68058 7.74945 8.59398 7.74945 8.48741V6.52178C7.74945 6.41535 7.66317 6.3291 7.55678 6.3291H5.35001C5.24344 6.3291 5.15684 6.41517 5.15625 6.52178V8.48741C5.15684 8.59419 5.24323 8.68058 5.35001 8.68117Z" fill="#2496ED"/>
<path d="M8.43682 8.68117H10.6436C10.7502 8.68058 10.8363 8.59398 10.8363 8.48741V6.52178C10.8363 6.41535 10.75 6.3291 10.6436 6.3291H8.43682C8.33038 6.3291 8.24414 6.41538 8.24414 6.52178V8.48741C8.24414 8.59398 8.33024 8.68058 8.43682 8.68117Z" fill="#2496ED"/>
<path d="M11.4876 8.68117H13.6944C13.8011 8.68058 13.8875 8.59419 13.8881 8.48741V6.52178C13.8875 6.41517 13.801 6.3291 13.6944 6.3291H11.4876C11.3812 6.3291 11.2949 6.41538 11.2949 6.52178V8.48741C11.2949 8.59398 11.381 8.68058 11.4876 8.68117Z" fill="#2496ED"/>
<path d="M11.4876 5.8521H13.6944C13.801 5.8521 13.8875 5.766 13.8881 5.65943V3.69268C13.8875 3.58607 13.801 3.5 13.6944 3.5H11.4876C11.3812 3.5 11.2949 3.58624 11.2949 3.69268V5.65939C11.2949 5.76583 11.3812 5.8521 11.4876 5.8521Z" fill="#2496ED"/>
<path d="M14.5657 11.5084H16.7725C16.8791 11.5084 16.9657 11.4223 16.9663 11.3157V9.35001C16.9663 9.24298 16.8795 9.15625 16.7725 9.15625H14.5657C14.4593 9.15625 14.373 9.24253 14.373 9.34893V9.35001V11.3156C14.373 11.4221 14.4593 11.5084 14.5657 11.5084Z" fill="#2496ED"/>
</svg>
