<svg width="25" height="25" viewBox="0 0 25 25" fill="none" xmlns="http://www.w3.org/2000/svg">
<path d="M23.0276 19.2666C21.6674 19.2322 20.6132 19.3702 19.729 19.7499C19.4739 19.8534 19.0658 19.8535 19.0318 20.1814C19.1678 20.3195 19.1848 20.5439 19.3039 20.7337C19.5081 21.0788 19.8649 21.5449 20.188 21.7867C20.5451 22.0627 20.9023 22.3388 21.2762 22.5805C21.9394 22.9948 22.6876 23.2363 23.3337 23.6506C23.7079 23.8921 24.0817 24.203 24.4558 24.4618C24.6429 24.5997 24.7618 24.8243 25 24.9105V24.8588C24.8809 24.7033 24.8469 24.479 24.7279 24.3064C24.5581 24.1338 24.3878 23.9785 24.2178 23.8058C23.7247 23.1328 23.1126 22.546 22.4495 22.0627C21.9055 21.683 20.7151 21.1652 20.4941 20.5266C20.4941 20.5266 20.477 20.5094 20.4601 20.4921C20.8341 20.4576 21.2762 20.3195 21.6334 20.216C22.2115 20.0605 22.7385 20.0951 23.3337 19.9398C23.6057 19.8707 23.8778 19.7844 24.1497 19.6981V19.5429C23.8438 19.2322 23.6228 18.818 23.2997 18.5245C22.4325 17.7649 21.4802 17.0229 20.4941 16.4016C19.967 16.0563 19.2868 15.8319 18.7257 15.5386C18.5218 15.4349 18.1816 15.3832 18.0627 15.2106C17.7565 14.831 17.5865 14.3305 17.3655 13.8817C16.8725 12.9323 16.3963 11.8796 15.9712 10.8786C15.6653 10.2054 15.4782 9.5322 15.1041 8.91098C13.3528 5.97683 11.4484 4.19909 8.52392 2.45578C7.89473 2.09339 7.1466 1.93804 6.34746 1.74826C5.92253 1.7309 5.4973 1.69648 5.07227 1.67912C4.80019 1.55829 4.52811 1.23042 4.29004 1.07506C3.32104 0.453651 0.821389 -0.892446 0.107272 0.885288C-0.351865 2.00708 0.787476 3.11162 1.1784 3.68135C1.46768 4.07826 1.8416 4.52696 2.04566 4.97576C2.16469 5.26901 2.19861 5.57991 2.31764 5.89052C2.58982 6.64973 2.8447 7.49564 3.20191 8.20336C3.38896 8.56575 3.59293 8.9454 3.831 9.27337C3.96704 9.46315 4.20501 9.54956 4.25613 9.86016C4.01815 10.2054 4.00105 10.7232 3.86491 11.1547C3.25282 13.105 3.49099 15.5213 4.35806 16.9538C4.63004 17.3852 5.27624 18.3348 6.1434 17.9722C6.90863 17.6616 6.73858 16.6778 6.95945 15.8148C7.01066 15.6074 6.97665 15.4695 7.07858 15.3315V15.3661C7.31665 15.8492 7.55463 16.3154 7.77569 16.7986C8.30285 17.6442 9.22093 18.5245 9.98606 19.1114C10.3943 19.4219 10.7173 19.957 11.2274 20.1469V20.095H11.1933C11.0913 19.9397 10.9382 19.8707 10.8023 19.7498C10.4963 19.4393 10.1561 19.0595 9.91814 18.7143C9.20412 17.7477 8.57483 16.6777 8.01376 15.573C7.74178 15.0381 7.50361 14.4512 7.28264 13.9162C7.18051 13.7089 7.18051 13.3984 7.01056 13.2949C6.75548 13.6746 6.38147 14.0025 6.19441 14.4685C5.87151 15.2106 5.8374 16.1254 5.71837 17.0746C5.65035 17.092 5.68426 17.0746 5.65025 17.1093C5.10628 16.971 4.91923 16.4016 4.71507 15.9182C4.20491 14.6929 4.11989 12.7253 4.56212 11.31C4.68116 10.9475 5.19131 9.80848 4.98725 9.46325C4.88522 9.13528 4.54502 8.94541 4.35806 8.68658C4.13709 8.35861 3.89892 7.94454 3.74597 7.58195C3.33785 6.6154 3.13379 5.54529 2.69175 4.57875C2.48769 4.12995 2.13078 3.66409 1.8416 3.24981C1.5186 2.78385 1.16149 2.45578 0.906414 1.90352C0.821486 1.71374 0.702353 1.40303 0.838394 1.19589C0.872404 1.0578 0.940327 1.00612 1.07647 0.971595C1.29753 0.781619 1.92672 1.02328 2.14759 1.12685C2.77678 1.38557 3.30384 1.62743 3.831 1.98982C4.06897 2.16244 4.32405 2.49041 4.63004 2.57671H4.98715C5.53131 2.69744 6.1433 2.61124 6.65345 2.76649C7.55472 3.05984 8.37077 3.49137 9.10199 3.95743C11.3295 5.38994 13.1656 7.42659 14.407 9.86016C14.6111 10.257 14.696 10.6197 14.883 11.0337C15.2402 11.8796 15.6823 12.7425 16.0392 13.571C16.3963 14.3821 16.7363 15.2106 17.2465 15.8838C17.5015 16.2461 18.5216 16.4361 18.9808 16.626C19.3209 16.7812 19.848 16.9194 20.154 17.1092C20.7321 17.4715 21.3102 17.886 21.8544 18.2828C22.1264 18.4899 22.9765 18.9214 23.0276 19.2666Z" fill="#00546B"/>
<path d="M5.68432 4.26758C5.39533 4.26758 5.19137 4.3023 4.9873 4.35398V4.38851H5.02131C5.15745 4.66469 5.39533 4.85457 5.56528 5.09613C5.70142 5.37221 5.82036 5.6485 5.9565 5.92468C5.9734 5.90732 5.99041 5.89016 5.99041 5.89016C6.22858 5.71744 6.34751 5.44136 6.34751 5.02708C6.24548 4.90635 6.22848 4.78552 6.14345 4.66469C6.04152 4.49198 5.82036 4.40577 5.68432 4.26758Z" fill="#00546B"/>
</svg>
