<svg width="25" height="25" viewBox="0 0 25 25" fill="none" xmlns="http://www.w3.org/2000/svg">
<path fill-rule="evenodd" clip-rule="evenodd" d="M14.7203 0C14.5395 0 14.3716 0.038739 14.2167 0.0903881C14.546 0.309901 14.7267 0.600436 14.8171 0.929706C14.8236 0.974899 14.8365 1.00718 14.843 1.05237C14.8494 1.09111 14.8559 1.12985 14.8559 1.16859C14.8817 1.73674 14.7074 1.80776 14.5847 2.14349C14.3975 2.57606 14.4491 3.04091 14.6751 3.41538C14.6945 3.46057 14.7203 3.51222 14.7526 3.55742C14.5072 1.92397 15.8695 1.67864 16.1213 1.16859C16.1407 0.723104 15.7727 0.426115 15.4821 0.219514C15.2045 0.0516506 14.9527 0 14.7203 0ZM16.7734 0.368009C16.7476 0.516503 16.7669 0.477765 16.7605 0.555241C16.754 0.60689 16.754 0.671455 16.7476 0.723104C16.7347 0.774755 16.7217 0.826404 16.7024 0.878057C16.6895 0.929706 16.6701 0.981356 16.6507 1.03301C16.6249 1.08466 16.6055 1.12985 16.5797 1.1815C16.5604 1.20734 16.5474 1.23315 16.5281 1.25898C16.5152 1.27835 16.5022 1.29771 16.4893 1.31708C16.4571 1.36228 16.4248 1.40747 16.3925 1.44621C16.3537 1.48495 16.3215 1.53014 16.2763 1.56242V1.56889C16.2375 1.60117 16.1988 1.63991 16.1536 1.67219C16.018 1.77549 15.8631 1.85296 15.721 1.94981C15.6758 1.98209 15.6306 2.00792 15.5919 2.04665C15.5467 2.07893 15.508 2.11121 15.4692 2.14995C15.424 2.18869 15.3918 2.22743 15.353 2.27262C15.3207 2.31136 15.282 2.35655 15.2562 2.40175C15.2239 2.44694 15.1916 2.49214 15.1658 2.53733C15.14 2.58898 15.1206 2.63417 15.0948 2.68582C15.0754 2.73747 15.056 2.78267 15.0431 2.83432C15.0238 2.89243 15.0108 2.94408 14.9979 2.99573C14.9915 3.02156 14.9915 3.05383 14.985 3.07966C14.9785 3.10549 14.9786 3.13131 14.9721 3.15714C14.9721 3.20878 14.9657 3.26689 14.9657 3.31854C14.9657 3.35728 14.9657 3.39602 14.9721 3.43476C14.9721 3.4864 14.9786 3.53805 14.9915 3.59616C14.998 3.64781 15.0109 3.69946 15.0238 3.75111C15.0431 3.80276 15.0561 3.85441 15.0754 3.90606C15.0883 3.93835 15.1077 3.97063 15.1206 3.99645L13.6357 3.42184C13.3839 3.35082 13.1385 3.28626 12.8867 3.22815C12.7512 3.19587 12.6156 3.16359 12.48 3.13131C12.0926 3.05383 11.6988 2.99573 11.305 2.95699C11.2921 2.95699 11.2856 2.95053 11.2727 2.95053C10.8853 2.91179 10.5044 2.89242 10.117 2.89242C9.83292 2.89242 9.54884 2.90532 9.27122 2.9247C8.87739 2.95054 8.48355 3.00218 8.08972 3.06674C7.99288 3.07964 7.89603 3.09902 7.79918 3.11839C7.59904 3.15713 7.40535 3.20232 7.21812 3.24751C7.12128 3.27335 7.02443 3.29917 6.92759 3.32499C6.83074 3.36373 6.74036 3.40892 6.64997 3.44766C6.57895 3.47994 6.50793 3.51222 6.43691 3.5445C6.42401 3.55097 6.41107 3.55097 6.40463 3.55741C6.34006 3.58969 6.28196 3.61551 6.22385 3.6478C6.20448 3.65426 6.19157 3.6607 6.17866 3.66716C6.10764 3.69945 6.03662 3.73818 5.97851 3.77046C5.93332 3.78983 5.88813 3.81566 5.84939 3.83503C5.83002 3.84793 5.80419 3.86086 5.79128 3.86731C5.73317 3.89959 5.67507 3.93187 5.62342 3.96415C5.56531 3.99643 5.51366 4.02871 5.46846 4.061C5.42327 4.09328 5.37808 4.1191 5.33934 4.15138C5.33287 4.15785 5.32644 4.15785 5.31997 4.16429C5.28123 4.19012 5.23604 4.22239 5.1973 4.25468C5.1973 4.25468 5.19083 4.26114 5.1844 4.26758C5.15212 4.29342 5.11983 4.31923 5.08755 4.34505C5.07465 4.35152 5.06172 4.36442 5.04882 4.37089C5.01654 4.39672 4.98426 4.429 4.95197 4.45482C4.94551 4.46772 4.93261 4.47419 4.92614 4.48066C4.8874 4.51939 4.84866 4.55167 4.80993 4.59041C4.80346 4.59041 4.80346 4.59688 4.79702 4.60331C4.75828 4.6356 4.71955 4.67433 4.68081 4.71307C4.67434 4.71954 4.67434 4.72597 4.66791 4.72597C4.63563 4.75826 4.60334 4.79054 4.57106 4.82927C4.55816 4.84218 4.53878 4.85511 4.52587 4.86801C4.49359 4.90675 4.45485 4.94549 4.41611 4.98423C4.40964 4.99713 4.39674 5.00359 4.39028 5.01651C4.33863 5.06816 4.29343 5.11981 4.24178 5.17146C4.23531 5.17792 4.22888 5.18436 4.22241 5.19083C4.11911 5.30058 4.00935 5.41034 3.89314 5.50718C3.77693 5.61048 3.65426 5.70733 3.53159 5.79126C3.40246 5.88165 3.27979 5.95912 3.14421 6.0366C3.01509 6.10762 2.8795 6.17218 2.73747 6.23029C2.60188 6.2884 2.45985 6.34005 2.31781 6.38524C2.04664 6.44335 1.76902 6.5531 1.53014 6.57247C1.47849 6.57247 1.42038 6.58538 1.36873 6.59184C1.31063 6.60474 1.25898 6.61768 1.20733 6.63058C1.15568 6.64995 1.10402 6.66932 1.05237 6.68868C1.00072 6.70805 0.949075 6.73388 0.897425 6.75971C0.85223 6.79199 0.80058 6.81781 0.755385 6.85009C0.710192 6.88237 0.664997 6.92111 0.626259 6.95985C0.581067 6.99213 0.535872 7.03733 0.497133 7.07606C0.458395 7.12126 0.419657 7.16 0.387377 7.20519C0.355096 7.25684 0.316358 7.30203 0.290532 7.35368C0.258251 7.39888 0.22597 7.45053 0.200144 7.50218C0.174309 7.56029 0.148494 7.61193 0.129125 7.67004C0.109756 7.72169 0.0903873 7.7798 0.0710183 7.83791C0.0581158 7.88955 0.0451829 7.9412 0.0387377 7.99285C0.0387377 7.99933 0.0322715 8.00576 0.0322715 8.01222C0.0193689 8.07033 0.0193689 8.14781 0.0129024 8.18655C0.00643615 8.23174 0 8.27048 0 8.31567C0 8.34151 2.00989e-08 8.37378 0.00646624 8.3996C0.0129325 8.4448 0.0193686 8.48354 0.0323017 8.52228C0.0452042 8.56101 0.0581371 8.59975 0.077494 8.63849V8.64495C0.096863 8.68369 0.122689 8.72243 0.148513 8.76117C0.174348 8.7999 0.200165 8.83864 0.232446 8.87738C0.264727 8.90966 0.303465 8.9484 0.342203 8.98068C0.380941 9.01942 0.419679 9.0517 0.464871 9.08398C0.619823 9.21956 0.658561 9.26476 0.858706 9.36806C0.890986 9.38743 0.92327 9.40034 0.962008 9.41971C0.968475 9.41971 0.974911 9.42617 0.981377 9.42617C0.981377 9.43907 0.981377 9.44554 0.987844 9.45846C0.994311 9.51011 1.00721 9.56176 1.02012 9.61341C1.03303 9.67151 1.05241 9.72317 1.07178 9.76836C1.09115 9.8071 1.10406 9.84583 1.12343 9.88457C1.12989 9.89748 1.13633 9.91041 1.1428 9.91685C1.16863 9.9685 1.19445 10.0137 1.22027 10.0589C1.25255 10.1041 1.28483 10.1493 1.31711 10.1945C1.3494 10.2332 1.38813 10.2784 1.42687 10.3171C1.46561 10.3559 1.50435 10.3882 1.54954 10.4269C1.54954 10.4269 1.55601 10.4334 1.56244 10.4334C1.60118 10.4657 1.63992 10.4979 1.67866 10.5238C1.72385 10.556 1.76905 10.5819 1.8207 10.6077C1.86589 10.6335 1.91754 10.6593 1.96919 10.6787C2.00793 10.6981 2.05312 10.711 2.09832 10.7239C2.10478 10.7304 2.11122 10.7304 2.12415 10.7368C2.14999 10.7433 2.18226 10.7497 2.20808 10.7562C2.18871 11.1048 2.18225 11.4341 2.23392 11.5503C2.29202 11.6794 2.5761 11.2856 2.86018 10.8337C2.82144 11.2791 2.79561 11.8021 2.86018 11.957C2.9312 12.1185 3.31857 11.6149 3.6543 11.0596C8.23181 10.0008 12.409 13.1644 12.8481 17.6321C12.7641 16.9348 11.9054 16.5475 11.5116 16.6443C11.3179 17.1221 10.9886 17.7354 10.4592 18.1163C10.5044 17.6902 10.4851 17.2512 10.3947 16.8251C10.2526 17.4191 9.97501 17.9743 9.59408 18.4521C8.98074 18.4973 8.36739 18.2003 8.04457 17.7548C8.01874 17.7354 8.01229 17.6967 7.99292 17.6709C7.97356 17.6257 7.95419 17.5805 7.94127 17.5353C7.92191 17.4901 7.90899 17.4449 7.90254 17.3997C7.89607 17.3545 7.89607 17.3093 7.89607 17.2577C7.89607 17.2254 7.89607 17.1931 7.89607 17.1608C7.90254 17.1156 7.91544 17.0704 7.92835 17.0252C7.94125 16.98 7.95419 16.9348 7.97355 16.8896C7.99938 16.8445 8.01874 16.7993 8.05102 16.7541C8.16078 16.4442 8.16078 16.1924 7.96063 16.0439C7.9219 16.018 7.88316 15.9987 7.83796 15.9793C7.81213 15.9728 7.77986 15.9599 7.75403 15.9535C7.73466 15.947 7.72175 15.9406 7.70238 15.9341C7.65719 15.9212 7.61199 15.9083 7.5668 15.9018C7.5216 15.8889 7.47641 15.8825 7.43122 15.8825C7.38602 15.876 7.33437 15.8696 7.28918 15.8696C7.2569 15.8696 7.22461 15.876 7.19233 15.876C7.14068 15.876 7.09549 15.8825 7.0503 15.8954C7.0051 15.9019 6.95991 15.9083 6.91471 15.9212C6.86952 15.9341 6.82433 15.9471 6.77913 15.9664C6.73394 15.9858 6.6952 16.0052 6.65 16.0245C6.61127 16.0439 6.57253 16.0697 6.52734 16.0891C5.02302 17.0704 5.92045 19.3689 6.94699 20.0339C6.55962 20.1049 6.16579 20.1888 6.05603 20.2728C6.04956 20.2792 6.04313 20.2857 6.04313 20.2857C6.32075 20.4535 6.61128 20.5956 6.91472 20.7182C7.32793 20.8538 7.76695 20.9765 7.96064 21.0281V21.0346C8.49651 21.1444 9.03884 21.1831 9.58763 21.1508C12.4478 20.9507 14.7914 18.7749 15.2175 15.9083C15.2304 15.9664 15.2433 16.0181 15.2563 16.0762C15.2756 16.1924 15.3014 16.3151 15.3144 16.4377V16.4442C15.3273 16.5023 15.3337 16.5604 15.3402 16.6121V16.6379C15.3467 16.696 15.3531 16.7541 15.3531 16.8058C15.3596 16.8768 15.366 16.9478 15.366 17.0188V17.1221C15.366 17.1544 15.3725 17.1931 15.3725 17.2254C15.3725 17.2642 15.366 17.3029 15.366 17.3416V17.432C15.366 17.4772 15.3595 17.516 15.3595 17.5611C15.3595 17.587 15.3595 17.6128 15.3531 17.6451C15.3531 17.6903 15.3466 17.7355 15.3466 17.7871C15.3401 17.8065 15.3401 17.8259 15.3401 17.8452C15.3337 17.8969 15.3272 17.9421 15.3207 17.9937C15.3207 18.0131 15.3207 18.0325 15.3143 18.0518C15.3078 18.1164 15.2949 18.1745 15.2885 18.2391V18.2455V18.252C15.2756 18.3101 15.2626 18.3747 15.2497 18.4328V18.4521C15.2368 18.5102 15.2239 18.5684 15.211 18.6265C15.211 18.6329 15.2045 18.6458 15.2045 18.6523C15.1916 18.7104 15.1787 18.7685 15.1593 18.8266V18.846C15.14 18.9105 15.1206 18.9687 15.1077 19.0268C15.1012 19.0332 15.1012 19.0397 15.1012 19.0397C15.0818 19.1042 15.0625 19.1688 15.0431 19.2333C15.0173 19.2979 14.9979 19.356 14.9721 19.4206C14.9462 19.4851 14.9269 19.5497 14.9011 19.6078C14.8752 19.6724 14.8494 19.7305 14.8236 19.795H14.8171C14.7913 19.8532 14.7655 19.9177 14.7332 19.9758C14.7267 19.9952 14.7203 20.0081 14.7138 20.021C14.7073 20.0275 14.7073 20.0339 14.7009 20.0404C14.2812 20.8862 13.6614 21.6286 12.8867 22.2097C12.835 22.242 12.7834 22.2807 12.7317 22.3195C12.7188 22.3324 12.6995 22.3388 12.6865 22.3517C12.6413 22.384 12.5962 22.4163 12.5445 22.4486L12.5639 22.4873H12.5703C12.6607 22.4744 12.7511 22.4615 12.8415 22.4486H12.848C13.0158 22.4227 13.1837 22.3905 13.3516 22.3582C13.3968 22.3517 13.4484 22.3388 13.4936 22.3259C13.5259 22.3194 13.5517 22.313 13.584 22.3065C13.6292 22.3001 13.6744 22.2872 13.7196 22.2807C13.7583 22.2678 13.797 22.2613 13.8358 22.2484C14.4814 22.0935 15.1077 21.8804 15.7081 21.6286C14.6816 23.0296 13.3064 24.1595 11.6987 24.902C12.4412 24.8503 13.1837 24.7276 13.9003 24.521C16.5022 23.7527 18.6909 22.0031 20.0015 19.6465C19.7368 21.1379 19.1428 22.5583 18.2648 23.7979C18.8911 23.3847 19.4657 22.907 19.9886 22.3646C21.4348 20.8539 22.3839 18.9364 22.7067 16.8768C22.9262 17.8969 22.9908 18.9493 22.894 19.9887C27.5554 13.4872 23.2813 6.74688 21.4929 4.9714C21.4865 4.9585 21.48 4.95203 21.48 4.93912C21.4736 4.94558 21.4736 4.94558 21.4736 4.95202C21.4736 4.94555 21.4736 4.94555 21.4671 4.93912C21.4671 5.01659 21.4606 5.09407 21.4542 5.17154C21.4348 5.32004 21.4155 5.46208 21.3896 5.60412C21.3574 5.74615 21.3186 5.88819 21.2799 6.03023C21.2347 6.16581 21.183 6.30785 21.1249 6.44343C21.0668 6.57255 21.0023 6.70814 20.9312 6.83727C20.8602 6.95994 20.7827 7.08906 20.6988 7.20527C20.6149 7.32794 20.5245 7.44416 20.4341 7.55391C20.3373 7.67013 20.234 7.77343 20.1307 7.87673C20.0661 7.93483 20.008 7.98648 19.9434 8.03813C19.8918 8.08333 19.8466 8.12207 19.7949 8.16726C19.6787 8.25765 19.5625 8.34158 19.4334 8.41906C19.3107 8.49653 19.1816 8.57401 19.0525 8.63857C18.9169 8.70313 18.7813 8.76124 18.6457 8.81935C18.5101 8.87099 18.3681 8.91619 18.226 8.95493C18.084 8.99366 17.9355 9.02595 17.7935 9.05177C17.645 9.07761 17.4965 9.09051 17.3545 9.10342C17.2512 9.10989 17.1479 9.11633 17.0445 9.11633C16.8961 9.11633 16.7476 9.10342 16.6055 9.09049C16.457 9.07759 16.3085 9.05821 16.1665 9.02592C16.018 9.00009 15.876 8.96136 15.7339 8.91617H15.7275C15.8695 8.90327 16.0115 8.89033 16.1536 8.86452C16.3021 8.83868 16.4441 8.80641 16.5861 8.76767C16.7282 8.72894 16.8702 8.68374 17.0058 8.63209C17.1478 8.58044 17.2834 8.51588 17.4125 8.45131C17.5481 8.38675 17.6708 8.31573 17.7999 8.23826C17.9226 8.15433 18.0453 8.0704 18.1615 7.98001C18.2777 7.88962 18.3874 7.79278 18.4908 7.68947C18.6005 7.59263 18.6974 7.48287 18.7942 7.37311C18.891 7.2569 18.9814 7.14069 19.0654 7.02448C19.0783 7.00511 19.0912 6.97928 19.1041 6.95991C19.1687 6.85661 19.2332 6.75331 19.2913 6.65001C19.3623 6.52088 19.4269 6.39176 19.485 6.25618C19.5431 6.1206 19.5948 5.98501 19.64 5.84298C19.6852 5.70739 19.7174 5.56535 19.7497 5.42332C19.7756 5.27482 19.8014 5.13278 19.8143 4.99075C19.8272 4.84225 19.8401 4.69376 19.8401 4.55172C19.8401 4.44842 19.8336 4.34512 19.8272 4.24182C19.8143 4.09332 19.7949 3.95128 19.7756 3.80925C19.7497 3.66075 19.7175 3.51871 19.6787 3.37667C19.6335 3.24109 19.5883 3.09905 19.5367 2.96347C19.485 2.82789 19.4205 2.69231 19.3559 2.56318C19.2849 2.43406 19.2139 2.30493 19.1364 2.18226C19.0525 2.05959 18.9685 1.94338 18.8781 1.82716C18.7813 1.71741 18.6845 1.60765 18.5812 1.49789C18.5295 1.44625 18.4714 1.38814 18.4133 1.33649C18.1228 1.11052 17.8193 0.897459 17.5159 0.703772C17.4707 0.677937 17.4319 0.658577 17.3867 0.639207C17.1737 0.503627 16.9735 0.43257 16.7734 0.368009Z" fill="#E0234E"/>
</svg>
