<svg width="25" height="25" viewBox="0 0 25 25" fill="none" xmlns="http://www.w3.org/2000/svg">
<path fill-rule="evenodd" clip-rule="evenodd" d="M15.428 15.1639L14.9485 15.9966C14.804 16.2474 14.5366 16.402 14.2471 16.402H10.5736C10.2841 16.402 10.0167 16.2474 9.8722 15.9966L9.39262 15.1639H15.428ZM16.7705 12.8328L15.925 14.301H8.89568L8.05018 12.8328H16.7705ZM15.956 10.5533L16.7718 11.97H8.04883L8.86466 10.5533H15.956ZM14.2471 8.39844C14.5366 8.39844 14.804 8.55303 14.9485 8.80388L15.4591 9.69043H9.3616L9.8722 8.80388C10.0167 8.55303 10.2841 8.39844 10.5736 8.39844H14.2471Z" fill="#00435B"/>
<path d="M5.22684 8.01289C4.8199 6.03965 4.73257 4.5262 4.99561 3.42722C5.15205 2.77361 5.43807 2.2404 5.87297 1.8557C6.33212 1.44956 6.91264 1.25027 7.5649 1.25027C8.64095 1.25027 9.77214 1.74096 10.981 2.67314C11.4741 3.05336 11.9858 3.51165 12.5173 4.04828C12.5596 3.99382 12.6074 3.94246 12.6607 3.89498C14.1633 2.55598 15.4283 1.72404 16.5103 1.40327C17.1537 1.21254 17.7577 1.19437 18.3078 1.37948C18.8884 1.57488 19.351 1.97879 19.6774 2.54454C20.2161 3.47823 20.3581 4.70511 20.1573 6.21999C20.0755 6.83747 19.9355 7.51009 19.7378 8.23887C19.8124 8.24788 19.8872 8.26442 19.9612 8.28896C21.8676 8.92072 23.2176 9.60011 24.0349 10.3765C24.5211 10.8385 24.8387 11.3528 24.9535 11.922C25.0746 12.5229 24.9565 13.1256 24.6305 13.6909C24.0928 14.6233 23.1042 15.3586 21.6957 15.9411C21.1302 16.1749 20.4903 16.3867 19.7754 16.5772C19.8081 16.6509 19.8334 16.7291 19.8503 16.8111C20.2572 18.7844 20.3446 20.2978 20.0815 21.3968C19.9251 22.0504 19.6391 22.5836 19.2041 22.9683C18.745 23.3745 18.1645 23.5738 17.5122 23.5738C16.4362 23.5738 15.305 23.0831 14.0961 22.1509C13.5978 21.7666 13.0804 21.3026 12.5428 20.7586C12.4875 20.8451 12.4196 20.9255 12.3393 20.9971C10.8367 22.3361 9.57168 23.168 8.48968 23.4888C7.84633 23.6795 7.2423 23.6977 6.69225 23.5126C6.11163 23.3172 5.64899 22.9133 5.32259 22.3475C4.78391 21.4139 4.64185 20.187 4.84268 18.6721C4.92751 18.0323 5.07469 17.3333 5.28389 16.574C5.20212 16.5657 5.12001 16.5484 5.03881 16.5215C3.13238 15.8897 1.78242 15.2103 0.965129 14.4339C0.478859 13.972 0.161319 13.4577 0.046531 12.8884C-0.0746285 12.2875 0.0435114 11.6848 0.369533 11.1195C0.907209 10.1871 1.89584 9.45181 3.30427 8.86937C3.88665 8.62854 4.54786 8.4111 5.28868 8.21624C5.26228 8.15162 5.24144 8.08369 5.22684 8.01289Z" fill="#002B3B"/>
<path fill-rule="evenodd" clip-rule="evenodd" d="M10.1233 7.38427C11.1115 7.30562 12.1301 7.27088 13.179 7.28007C13.3777 7.28181 13.5401 7.12218 13.5419 6.92352C13.5426 6.83985 13.5142 6.75854 13.4614 6.69359C11.0739 3.75398 9.10802 2.28418 7.5637 2.28418C5.96934 2.28418 5.51449 4.04165 6.19916 7.55658C6.23669 7.74924 6.42174 7.87625 6.61501 7.842C7.83395 7.62597 9.00336 7.4734 10.1233 7.38427Z" fill="#FF4154"/>
<path fill-rule="evenodd" clip-rule="evenodd" d="M15.6701 7.86807C16.2408 8.69045 16.7885 9.56135 17.3133 10.4808C17.4118 10.6533 17.6315 10.7133 17.804 10.6149C17.8764 10.5736 17.9321 10.5084 17.9618 10.4306C19.3123 6.88826 19.5962 4.44532 18.8133 3.10177C18.0055 1.71532 16.2452 2.19472 13.5327 4.53996C13.3835 4.6689 13.366 4.89387 13.4933 5.04439C14.2992 5.9971 15.0248 6.93832 15.6701 7.86807Z" fill="#FF4154"/>
<path fill-rule="evenodd" clip-rule="evenodd" d="M18.0661 12.8169C17.639 13.7147 17.1589 14.6169 16.6258 15.5236C16.5252 15.6949 16.5824 15.9154 16.7536 16.016C16.8262 16.0587 16.9113 16.0745 16.9943 16.0609C20.7161 15.449 22.9635 14.4723 23.7366 13.1308C24.535 11.7454 23.251 10.4755 19.8847 9.32129C19.6992 9.25771 19.497 9.35434 19.43 9.53857C19.0052 10.706 18.5506 11.7988 18.0661 12.8169Z" fill="#FF4154"/>
<path fill-rule="evenodd" clip-rule="evenodd" d="M15.0115 17.4624C14.0233 17.5411 13.0047 17.5758 11.9557 17.5666C11.7571 17.5649 11.5946 17.7245 11.5929 17.9232C11.5921 18.0068 11.6206 18.0881 11.6734 18.1531C14.0608 21.0927 16.0267 22.5625 17.5711 22.5625C19.1654 22.5625 19.6203 20.805 18.9356 17.2901C18.8981 17.0974 18.713 16.9704 18.5198 17.0047C17.3008 17.2207 16.1314 17.3733 15.0115 17.4624Z" fill="#FF4154"/>
<path fill-rule="evenodd" clip-rule="evenodd" d="M9.33001 17.0237C8.7593 16.2013 8.21155 15.3304 7.68678 14.411C7.5883 14.2384 7.3686 14.1784 7.19606 14.2769C7.12371 14.3182 7.06793 14.3833 7.03826 14.4611C5.68774 18.0035 5.40392 20.4464 6.18677 21.79C6.99462 23.1764 8.75484 22.697 11.4674 20.3518C11.6166 20.2228 11.6341 19.9979 11.5068 19.8473C10.7008 18.8946 9.97524 17.9534 9.33001 17.0237Z" fill="#FF4154"/>
<path fill-rule="evenodd" clip-rule="evenodd" d="M6.93423 11.9401C7.36136 11.0424 7.84147 10.1402 8.37453 9.23342C8.47521 9.06216 8.41799 8.8417 8.24673 8.74102C8.17422 8.6984 8.08907 8.68253 8.00607 8.69617C4.28429 9.30811 2.03685 10.2848 1.26378 11.6263C0.465351 13.0117 1.74933 14.2815 5.1157 15.4358C5.30115 15.4993 5.50337 15.4027 5.5704 15.2185C5.99519 14.051 6.4498 12.9582 6.93423 11.9401Z" fill="#FF4154"/>
<path fill-rule="evenodd" clip-rule="evenodd" d="M10.869 8.44434H13.9526C14.4036 8.44434 14.8201 8.68553 15.0446 9.07666L16.5929 11.7745C16.8156 12.1626 16.8156 12.6397 16.5929 13.0278L15.0446 15.7257C14.8201 16.1168 14.4036 16.358 13.9526 16.358H10.869C10.4181 16.358 10.0016 16.1168 9.7771 15.7257L8.22879 13.0278C8.00606 12.6397 8.00606 12.1626 8.22879 11.7745L9.7771 9.07666C10.0016 8.68553 10.4181 8.44434 10.869 8.44434ZM13.4827 9.2586C13.9339 9.2586 14.3506 9.50005 14.5749 9.8915L15.6546 11.7751C15.8769 12.1629 15.8769 12.6395 15.6546 13.0273L14.5749 14.9108C14.3506 15.3023 13.9339 15.5437 13.4827 15.5437H11.339C10.8878 15.5437 10.4711 15.3023 10.2467 14.9108L9.16707 13.0273C8.94478 12.6395 8.94478 12.1629 9.16707 11.7751L10.2467 9.8915C10.4711 9.50005 10.8878 9.2586 11.339 9.2586H13.4827ZM12.9761 10.1492H11.8456C11.3948 10.1492 10.9785 10.3902 10.7539 10.781L10.1834 11.774C9.96025 12.1623 9.96025 12.64 10.1834 13.0284L10.7539 14.0214C10.9785 14.4122 11.3948 14.6531 11.8456 14.6531H12.9761C13.4268 14.6531 13.8432 14.4122 14.0677 14.0214L14.6383 13.0284C14.8614 12.64 14.8614 12.1623 14.6383 11.774L14.0677 10.781C13.8432 10.3902 13.4268 10.1492 12.9761 10.1492ZM12.4884 11.0016C12.9388 11.0016 13.3548 11.2422 13.5795 11.6326L13.6604 11.7731C13.8842 12.1619 13.8842 12.6404 13.6604 13.0292L13.5795 13.1697C13.3548 13.5601 12.9388 13.8007 12.4884 13.8007H12.3333C11.8829 13.8007 11.4668 13.5601 11.2422 13.1697L11.1613 13.0292C10.9375 12.6404 10.9375 12.1619 11.1613 11.7731L11.2422 11.6326C11.4668 11.2422 11.8829 11.0016 12.3333 11.0016H12.4884ZM12.411 11.8414C12.2106 11.8414 12.0257 11.9481 11.9256 12.1213C11.8255 12.2945 11.8255 12.5079 11.9256 12.6811C12.0257 12.8543 12.2106 12.961 12.4106 12.961C12.6111 12.961 12.796 12.8543 12.8961 12.6811C12.9961 12.5079 12.9961 12.2945 12.8961 12.1213C12.796 11.9481 12.6111 11.8414 12.411 11.8414ZM7.86914 12.4012H8.87703H7.86914Z" fill="#FFD94C"/>
</svg>
