<svg width="26" height="25" viewBox="0 0 26 25" fill="none" xmlns="http://www.w3.org/2000/svg">
<path d="M12.5771 14.704C13.7944 14.704 14.7812 13.7172 14.7812 12.5C14.7812 11.2827 13.7944 10.2959 12.5771 10.2959C11.3598 10.2959 10.373 11.2827 10.373 12.5C10.373 13.7172 11.3598 14.704 12.5771 14.704Z" fill="#61DAFB"/>
<path d="M12.5767 17.0156C19.1083 17.0156 24.4033 14.9939 24.4033 12.5C24.4033 10.0061 19.1083 7.98438 12.5767 7.98438C6.04497 7.98438 0.75 10.0061 0.75 12.5C0.75 14.9939 6.04497 17.0156 12.5767 17.0156Z" stroke="#61DAFB" stroke-width="1.25"/>
<path d="M8.66624 14.7578C11.9321 20.4144 16.3304 23.9891 18.4902 22.7422C20.65 21.4952 19.7534 15.8988 16.4875 10.2422C13.2217 4.58558 8.82336 1.01086 6.66357 2.25782C4.50377 3.50477 5.4004 9.10121 8.66624 14.7578Z" stroke="#61DAFB" stroke-width="1.25"/>
<path d="M8.66576 10.2422C5.39992 15.8988 4.50329 21.4952 6.66308 22.7422C8.82288 23.9891 13.2212 20.4144 16.4871 14.7578C19.7529 9.10121 20.6495 3.50477 18.4897 2.25781C16.3299 1.01085 11.9316 4.58557 8.66576 10.2422Z" stroke="#61DAFB" stroke-width="1.25"/>
</svg>
