<?xml version="1.0" standalone="no"?>
<!DOCTYPE svg PUBLIC "-//W3C//DTD SVG 20010904//EN"
 "http://www.w3.org/TR/2001/REC-SVG-20010904/DTD/svg10.dtd">
<svg version="1.0" xmlns="http://www.w3.org/2000/svg"
 width="1413.000000pt" height="259.000000pt" viewBox="0 0 1413.000000 259.000000"
 preserveAspectRatio="xMidYMid meet">

<g transform="translate(0.000000,259.000000) scale(0.100000,-0.100000)"
fill="#000000" stroke="none">
<path d="M0 1818 l0 -573 570 570 c314 313 570 571 570 572 0 2 -256 3 -570 3
l-570 0 0 -572z"/>
<path d="M1000 1385 l-1005 -1005 460 0 460 0 548 547 548 548 545 -547 544
-548 460 0 460 0 -2 543 -3 542 -297 3 -298 2 -2 -250 -3 -250 -415 415 -415
415 718 0 717 0 0 295 0 295 -1008 0 -1007 0 -1005 -1005z"/>
<path d="M5547 2376 c-73 -20 -128 -63 -159 -125 l-28 -55 0 -241 0 -241 28
-55 c33 -66 97 -112 180 -130 67 -14 258 -6 342 13 l55 13 3 203 2 202 -90 0
-90 0 0 -129 0 -129 -63 -6 c-85 -10 -136 8 -160 54 -15 31 -17 59 -15 223 l3
189 30 25 30 26 156 -6 157 -6 6 47 c4 26 9 63 12 83 l5 36 -89 12 c-115 14
-254 13 -315 -3z"/>
<path d="M4610 2374 c0 -3 59 -141 130 -305 l130 -299 0 -120 0 -120 95 0 95
0 0 120 0 120 130 299 c72 164 130 302 130 305 0 3 -44 6 -99 6 l-98 0 -78
-190 c-42 -104 -78 -190 -80 -190 -2 0 -38 86 -80 190 l-78 190 -98 0 c-55 0
-99 -3 -99 -6z"/>
<path d="M4690 815 l0 -425 265 0 265 0 0 85 0 85 -170 0 -170 0 0 90 0 90
160 0 160 0 0 85 0 85 -160 0 -160 0 0 80 0 80 170 0 170 0 0 85 0 85 -265 0
-265 0 0 -425z"/>
<path d="M5370 815 l0 -425 90 0 90 0 2 273 3 272 138 -272 137 -273 120 0
120 0 0 425 0 425 -90 0 -90 0 -1 -287 -1 -288 -141 288 -141 287 -118 0 -118
0 0 -425z"/>
<path d="M6150 1155 l0 -85 115 0 115 0 0 -340 0 -340 95 0 95 0 0 340 0 340
115 0 115 0 0 85 0 85 -325 0 -325 0 0 -85z"/>
<path d="M6900 815 l0 -425 265 0 265 0 0 85 0 85 -170 0 -170 0 0 90 0 90
160 0 160 0 0 85 0 85 -160 0 -160 0 0 80 0 80 170 0 170 0 0 85 0 85 -265 0
-265 0 0 -425z"/>
<path d="M7580 815 l0 -425 95 0 95 0 0 130 0 130 58 0 58 0 94 -130 93 -130
114 0 c89 0 113 3 107 13 -4 6 -49 71 -100 144 l-92 131 34 24 c19 13 45 45
59 72 22 45 25 62 25 165 0 141 -11 185 -59 232 -59 60 -108 69 -363 69 l-218
0 0 -425z m427 232 c14 -14 18 -34 18 -102 0 -116 -4 -119 -145 -123 l-110 -4
0 127 0 127 110 -4 c89 -2 113 -6 127 -21z"/>
<path d="M8290 1155 l0 -85 115 0 115 0 0 -340 0 -340 95 0 95 0 0 340 0 340
115 0 115 0 0 85 0 85 -325 0 -325 0 0 -85z"/>
<path d="M9165 1228 c-2 -7 -59 -193 -125 -413 -66 -220 -123 -406 -125 -413
-4 -10 18 -12 97 -10 l102 3 22 75 21 75 141 3 140 3 16 -53 c8 -29 18 -65 21
-81 l7 -27 99 0 c54 0 99 3 99 8 1 4 -56 195 -126 425 l-127 417 -129 0 c-94
0 -130 -3 -133 -12z m183 -352 c23 -87 41 -161 38 -163 -2 -2 -44 -2 -93 -1
l-90 3 45 168 c25 92 48 164 52 160 4 -5 25 -80 48 -167z"/>
<path d="M9780 815 l0 -425 95 0 95 0 0 425 0 425 -95 0 -95 0 0 -425z"/>
<path d="M10140 815 l0 -425 90 0 90 0 2 273 3 272 138 -272 137 -273 120 0
120 0 0 425 0 425 -90 0 -90 0 -1 -287 -1 -288 -141 288 -141 287 -118 0 -118
0 0 -425z"/>
<path d="M11020 1188 c0 -29 -7 -199 -15 -378 -8 -179 -15 -346 -15 -372 l0
-48 95 0 95 0 0 143 c0 78 3 180 7 226 l6 84 19 -49 c11 -27 42 -104 70 -171
l50 -123 87 0 87 0 70 172 69 171 6 -119 c4 -65 7 -167 8 -226 l1 -108 96 0
95 0 -7 142 c-3 79 -11 269 -18 423 l-11 280 -98 0 -99 0 -92 -245 c-50 -135
-95 -254 -100 -265 -6 -15 -32 45 -108 248 l-100 267 -99 0 -99 0 0 -52z"/>
<path d="M12000 815 l0 -425 265 0 265 0 0 85 0 85 -170 0 -170 0 0 90 0 90
160 0 160 0 0 85 0 85 -160 0 -160 0 0 80 0 80 170 0 170 0 0 85 0 85 -265 0
-265 0 0 -425z"/>
<path d="M12680 815 l0 -425 90 0 90 0 2 273 3 272 138 -272 137 -273 120 0
120 0 0 425 0 425 -90 0 -90 0 -1 -287 -1 -288 -141 288 -141 287 -118 0 -118
0 0 -425z"/>
<path d="M13470 1155 l0 -85 115 0 115 0 0 -340 0 -340 95 0 95 0 0 340 0 340
115 0 115 0 0 85 0 85 -325 0 -325 0 0 -85z"/>
</g>
</svg>
