<svg width="152" height="25" viewBox="0 0 152 25" fill="none" xmlns="http://www.w3.org/2000/svg">
<g clip-path="url(#clip0_4506_66175)">
<mask id="mask0_4506_66175" style="mask-type:luminance" maskUnits="userSpaceOnUse" x="0" y="0" width="152" height="25">
<path d="M152 0H0V25H152V0Z" fill="white"/>
</mask>
<g mask="url(#mask0_4506_66175)">
<path d="M139.793 3.20964C138.773 1.23989 136.751 0 134.535 0C132.319 0 130.287 1.23989 129.276 3.20964C125.53 10.4731 121.793 17.7365 118.047 25.0088H124.501C125.715 22.7225 126.92 20.4274 128.133 18.141H140.936C142.15 20.4274 143.355 22.7225 144.568 25.0088H151.023C147.277 17.7453 143.539 10.4731 139.793 3.20964ZM130.824 12.5396L134.535 5.51354L138.246 12.5396H130.824Z" fill="#B32D26"/>
<path d="M8.67675 15.3623C6.63665 15.3623 4.68449 14.5533 3.24235 13.1112C1.809 11.669 1 9.71685 1 7.67675C1 5.64544 1.809 3.69328 3.25114 2.25114C4.69328 0.809005 6.64544 0 8.67675 0H36.8864V5.71579H7.2434V9.6465H31.5487C33.5888 9.6465 35.541 10.4555 36.9831 11.8976C38.4253 13.3398 39.2343 15.2919 39.2343 17.332C39.2343 19.3721 38.4253 21.3243 36.9831 22.7664C35.541 24.2086 33.5888 25.0176 31.5487 25.0176H2.45093V19.3018H32.5951V15.3711H8.67675V15.3623Z" fill="#B32D26"/>
<path d="M81.4854 6.21702C81.4678 3.71966 82.9627 1.45973 85.2578 0.492438C87.5529 -0.474851 90.2173 0.0263807 91.9936 1.77629C98.0348 7.72951 104.085 13.6739 110.126 19.6272V0H115.842V18.7214C115.842 21.2452 114.329 23.5315 111.999 24.5076C109.669 25.4924 106.978 24.9824 105.175 23.2149C99.1955 17.3848 93.2247 11.5459 87.2451 5.71579V25H81.4766V6.21702H81.4854Z" fill="#B32D26"/>
<path d="M50.7696 25H77.6777V19.2842H48.8262V15.3535H77.6777V9.63771H48.8262V5.707H77.6777V0H50.7696C48.7207 0 46.7509 0.817798 45.3 2.26873C43.849 3.71966 43.0312 5.68941 43.0312 7.7383V17.2617C43.0312 19.3106 43.849 21.2803 45.3 22.7313C46.7509 24.1822 48.7207 25 50.7696 25Z" fill="#B32D26"/>
</g>
</g>
<defs>
<clipPath id="clip0_4506_66175">
<rect width="152" height="25" fill="white"/>
</clipPath>
</defs>
</svg>
